<svg width="112" height="113" viewBox="0 0 112 113" fill="none" xmlns="http://www.w3.org/2000/svg">
<path d="M24.6238 48.4014C38.1417 48.4014 49.1002 56.7085 49.1002 56.7085C49.1002 56.7085 38.1417 65.0156 24.6238 65.0156C11.1059 65.0156 0.147461 56.7085 0.147461 56.7085C0.147461 56.7085 11.1059 48.4014 24.6238 48.4014Z" fill="#333333"/>
<path d="M28.04 73.0947C37.6137 63.521 51.1981 61.5834 51.1981 61.5834C51.1981 61.5834 49.2604 75.1678 39.6867 84.7415C30.1131 94.3152 16.5287 96.2528 16.5287 96.2528C16.5287 96.2528 18.4663 82.6684 28.04 73.0947Z" fill="#333333"/>
<path d="M47.9124 88.1558C47.9124 74.556 56.0712 63.5311 56.0712 63.5311C56.0712 63.5311 64.23 74.556 64.23 88.1558C64.23 101.756 56.0712 112.781 56.0712 112.781C56.0712 112.781 47.9124 101.756 47.9124 88.1558Z" fill="#333333"/>
<path d="M72.4609 84.742C62.8873 75.1683 60.9496 61.5839 60.9496 61.5839C60.9496 61.5839 74.534 63.5216 84.1077 73.0952C93.6814 82.6689 95.619 96.2533 95.619 96.2533C95.619 96.2533 82.0346 94.3157 72.4609 84.742Z" fill="#333333"/>
<path d="M87.5237 48.4014C101.042 48.4014 112 56.7085 112 56.7085C112 56.7085 101.042 65.0156 87.5237 65.0156C74.0058 65.0156 63.0474 56.7085 63.0474 56.7085C63.0474 56.7085 74.0058 48.4014 87.5237 48.4014Z" fill="#333333"/>
<path d="M72.4619 28.6763C82.0356 19.1026 95.6199 17.165 95.6199 17.165C95.6199 17.165 93.6823 30.7493 84.1086 40.323C74.5349 49.8967 60.9506 51.8343 60.9506 51.8343C60.9506 51.8343 62.8882 38.25 72.4619 28.6763Z" fill="#333333"/>
<path d="M47.9124 25.2591C47.9124 11.6593 56.0712 0.63441 56.0712 0.63441C56.0712 0.63441 64.23 11.6593 64.23 25.2591C64.23 38.8589 56.0712 49.8838 56.0712 49.8838C56.0712 49.8838 47.9124 38.8589 47.9124 25.2591Z" fill="#333333"/>
<path d="M28.0393 40.3206C18.4656 30.7469 16.528 17.1625 16.528 17.1625C16.528 17.1625 30.1124 19.1002 39.6861 28.6739C49.2597 38.2475 51.1974 51.8319 51.1974 51.8319C51.1974 51.8319 37.613 49.8943 28.0393 40.3206Z" fill="#333333"/>
</svg>
